<svg version="1.1" viewBox="0 0 800 800" xmlns="http://www.w3.org/2000/svg">
<path d="m787.47 0h-774.95c-6.9203 0-12.527 5.7031-12.527 12.738v774.52c0 7.0347 5.6062 12.739 12.527 12.739h774.95c6.9187 0 12.527-5.7031 12.527-12.739v-774.52c-2e-3 -7.0347-5.6078-12.738-12.528-12.738z" fill="#e6eaea"/>
<path d="m230.48 380.36-149.24 171.57v164.97h635.89v-508.12l-155.73 184.77-162.22 145.18z" fill="#ffd1a9"/>
<path d="m720.67 67.939h-641.34c-6.9187 0-12.527 5.7031-12.527 12.739v638.64c0 7.0347 5.6062 12.739 12.527 12.739h641.33c6.9187 0 12.527-5.7031 12.527-12.739v-638.64c0-7.0347-5.6062-12.739-12.525-12.739zm-166.18 312.53h-141.96v-137.58h141.96zm25.052-137.58h128.6v137.58h-128.6zm-167.01-25.477v-123.99h141.96v123.99zm-25.053 0h-141.96v-123.99h141.96zm0 25.477v137.58h-141.96v-137.58zm-167.01 137.58h-128.6v-137.58h128.6zm-128.6 25.477h128.6v137.58h-128.6zm153.65 0h141.96v137.58h-141.96zm141.96 163.06v137.58h-141.96v-137.58zm25.053 0h141.96v137.58h-141.96zm0-25.477v-137.58h141.96v137.58zm167.01-137.58h128.6v137.58h-128.6zm128.6-188.54h-128.6v-123.99h128.6zm-487.68-123.99v123.99h-128.6v-123.99zm-128.6 475.58h128.6v137.58h-128.6zm487.68 137.58v-137.58h128.6v137.58z" fill="#9baaab"/>
<path d="m70.114 554.43 153.65-169.85c4.7164-5.2141 12.803-5.5328 17.894-0.5657l158.34 154.59 158.05-154.31 146.7-162.76c4.6734-5.185 12.597-5.5362 17.698-0.78339 5.0984 4.7544 5.4437 12.812 0.76875 17.999l-146.97 163.06c-0.17813 0.20021-0.36563 0.39408-0.55782 0.58158l-167.01 163.06c-4.8469 4.7322-12.503 4.7322-17.352 0l-157.78-154.04-144.99 160.28z" fill="#365558"/>
<path d="m79.331 509.55c-25.325 0-45.93 20.953-45.93 46.71s20.605 46.71 45.93 46.71c25.325 0 45.93-20.953 45.93-46.71s-20.605-46.71-45.93-46.71z" fill="#fd6a33"/>
<path d="m232.99 346.5c-25.325 0-45.93 20.953-45.93 46.71 0 25.757 20.605 46.71 45.93 46.71s45.93-20.953 45.93-46.71c0-25.757-20.606-46.71-45.93-46.71z" fill="#4acfd9"/>
<path d="m400 509.55c-25.325 0-45.93 20.953-45.93 46.71s20.605 46.71 45.93 46.71 45.93-20.953 45.93-46.71-20.605-46.71-45.93-46.71z" fill="#fd6a33"/>
<path d="m567.01 346.5c-25.325 0-45.93 20.953-45.93 46.71 0 25.757 20.605 46.71 45.93 46.71s45.93-20.953 45.93-46.71c0-25.757-20.605-46.71-45.93-46.71z" fill="#4acfd9"/>
<path d="m713.99 183.44c-25.325 0-45.93 20.953-45.93 46.71 0 25.757 20.605 46.71 45.93 46.71s45.93-20.953 45.93-46.71c0-25.757-20.605-46.71-45.93-46.71z" fill="#4acfd9"/>
</svg>
