<?xml version="1.0" encoding="UTF-8" standalone="no"?>
<!-- Created with Inkscape (http://www.inkscape.org/) -->

<svg
   width="1920"
   height="1080"
   viewBox="0 0 1920 1080"
   version="1.1"
   id="svg1"
   inkscape:version="1.3.2 (091e20e, 2023-11-25, custom)"
   sodipodi:docname="assets-library.svg"
   xmlns:inkscape="http://www.inkscape.org/namespaces/inkscape"
   xmlns:sodipodi="http://sodipodi.sourceforge.net/DTD/sodipodi-0.dtd"
   xmlns="http://www.w3.org/2000/svg"
   xmlns:svg="http://www.w3.org/2000/svg">
  <defs
     id="defs1" />
  <style
     id="button-styles">.button{cursor:pointer}.button-background {fill: #3771c8;}.button:hover .button-background {fill: #2ca05a;}.button-text {fill: #ccc} .button:hover .button-text{ fill: #ffffff }</style>
  <sodipodi:namedview
     id="namedview1"
     pagecolor="#686868"
     bordercolor="#000000"
     borderopacity="0.25"
     inkscape:showpageshadow="true"
     inkscape:pageopacity="0.0"
     inkscape:pagecheckerboard="true"
     inkscape:deskcolor="#1e1e1e"
     inkscape:document-units="px"
     borderlayer="true"
     inkscape:clip-to-page="false"
     inkscape:zoom="2.1301592"
     inkscape:cx="591.97454"
     inkscape:cy="42.250364"
     inkscape:window-width="1278"
     inkscape:window-height="1360"
     inkscape:window-x="-7"
     inkscape:window-y="0"
     inkscape:window-maximized="0"
     inkscape:current-layer="svg1"
     showgrid="false" />
  <g
     id="Explicacion"
     transform="translate(-5.679133,17.842083)">
    <text
       style="font-style:normal;font-variant:normal;font-weight:normal;font-stretch:normal;font-size:16px;line-height:1em;font-family:'Hitmo2.0';-inkscape-font-specification:'Hitmo2.0';text-align:start;text-decoration-color:#000000;white-space:pre;shape-inside:url(#rect7);shape-padding:2.6556;display:inline;fill:#ffffff;stroke-linejoin:round;stroke-opacity:0.282816;paint-order:stroke markers fill"
       x="-57.112831"
       y="0"
       transform="translate(-527.13693,-362.07469)"
       xml:space="preserve"
       id="text10"><tspan
         x="0"
         y="0"
         id="tspan5"><tspan
           style="font-weight:bold;font-family:'Bitstream Vera Sans';-inkscape-font-specification:'Bitstream Vera Sans Bold'"
           id="tspan4">Fuente: Bitstream vera sans - Bold
</tspan></tspan><tspan
         x="0"
         y="16.15625"
         id="tspan7"><tspan
           style="font-weight:bold;font-family:'Bitstream Vera Sans';-inkscape-font-specification:'Bitstream Vera Sans Bold'"
           id="tspan6">https://www.dafont.com/es/bitstream-vera-sans.font
</tspan></tspan><tspan
         x="0"
         y="32.3125"
         id="tspan9"><tspan
           style="font-weight:bold;font-family:'Bitstream Vera Sans';-inkscape-font-specification:'Bitstream Vera Sans Bold'"
           id="tspan8">
</tspan></tspan><tspan
         x="0"
         y="48.46875"
         id="tspan11"><tspan
           style="font-weight:bold;font-family:'Bitstream Vera Sans';-inkscape-font-specification:'Bitstream Vera Sans Bold'"
           id="tspan10">Espaciado del botón:
</tspan></tspan><tspan
         x="0"
         y="64.625"
         id="tspan13"><tspan
           style="font-weight:bold;font-family:'Bitstream Vera Sans';-inkscape-font-specification:'Bitstream Vera Sans Bold'"
           id="tspan12">Arriba y abajo: No importa, fuente a  16 px
</tspan></tspan><tspan
         x="0"
         y="80.78125"
         id="tspan15"><tspan
           style="font-weight:bold;font-family:'Bitstream Vera Sans';-inkscape-font-specification:'Bitstream Vera Sans Bold'"
           id="tspan14">Lados: 32px
</tspan></tspan><tspan
         x="0"
         y="96.9375"
         id="tspan19"><tspan
           style="font-weight:bold;font-family:'Bitstream Vera Sans';-inkscape-font-specification:'Bitstream Vera Sans Bold'"
           id="tspan17">
</tspan></tspan><tspan
         x="0"
         y="113.09375"
         id="tspan21"><tspan
           style="font-weight:bold;font-family:'Bitstream Vera Sans';-inkscape-font-specification:'Bitstream Vera Sans Bold'"
           id="tspan20">Boton de muestra:
</tspan></tspan><tspan
         x="0"
         y="129.25"
         id="tspan23"><tspan
           style="font-weight:bold;font-family:'Bitstream Vera Sans';-inkscape-font-specification:'Bitstream Vera Sans Bold'"
           id="tspan22">Clonar
</tspan></tspan><tspan
         x="0"
         y="145.40625"
         id="tspan25"><tspan
           style="font-weight:bold;font-family:'Bitstream Vera Sans';-inkscape-font-specification:'Bitstream Vera Sans Bold'"
           id="tspan24">
</tspan></tspan><tspan
         x="0"
         y="161.5625"
         id="tspan27"><tspan
           style="font-weight:bold;font-family:'Bitstream Vera Sans';-inkscape-font-specification:'Bitstream Vera Sans Bold'"
           id="tspan26">Generar el nuevo archivo:
</tspan></tspan><tspan
         x="0"
         y="177.71875"
         id="tspan29"><tspan
           style="font-weight:bold;font-family:'Bitstream Vera Sans';-inkscape-font-specification:'Bitstream Vera Sans Bold'"
           id="tspan28">Pegar el botón y pasarlo a las coordenadas X=0 y Y=0 (seleccionado todo)
</tspan></tspan><tspan
         x="0"
         y="193.875"
         id="tspan31"><tspan
           style="font-weight:bold;font-family:'Bitstream Vera Sans';-inkscape-font-specification:'Bitstream Vera Sans Bold'"
           id="tspan30">Agrupar y dejarle la clase &quot;button&quot;
</tspan></tspan><tspan
         x="0"
         y="210.03125"
         id="tspan33"><tspan
           style="font-weight:bold;font-family:'Bitstream Vera Sans';-inkscape-font-specification:'Bitstream Vera Sans Bold'"
           id="tspan32">El fondo del boton es una clase llamada &quot;button-background&quot;
</tspan></tspan><tspan
         x="0"
         y="226.1875"
         id="tspan35"><tspan
           style="font-weight:bold;font-family:'Bitstream Vera Sans';-inkscape-font-specification:'Bitstream Vera Sans Bold'"
           id="tspan34">El texto es una clase llamada &quot;button-text&quot;
</tspan></tspan><tspan
         x="0"
         y="242.34375"
         id="tspan37"><tspan
           style="font-weight:bold;font-family:'Bitstream Vera Sans';-inkscape-font-specification:'Bitstream Vera Sans Bold'"
           id="tspan36">Guardar el archivo optimizado
</tspan></tspan><tspan
         x="0"
         y="258.5"
         id="tspan39"><tspan
           style="font-weight:bold;font-family:'Bitstream Vera Sans';-inkscape-font-specification:'Bitstream Vera Sans Bold'"
           id="tspan38">Abrir ESTE archivo y el nuevo archivo
</tspan></tspan><tspan
         x="0"
         y="274.65625"
         id="tspan41"><tspan
           style="font-weight:bold;font-family:'Bitstream Vera Sans';-inkscape-font-specification:'Bitstream Vera Sans Bold'"
           id="tspan40">copiar la etiqueta &quot;style&quot; al nuevo archivo
</tspan></tspan><tspan
         x="0"
         y="290.8125"
         id="tspan43"><tspan
           style="font-weight:bold;font-family:'Bitstream Vera Sans';-inkscape-font-specification:'Bitstream Vera Sans Bold'"
           id="tspan42">Acomodar colores de ser necesario</tspan></tspan></text>
  </g>
  <g
     id="boton-de-muestra"
     transform="translate(-7.3029046,-43.817427)">
    <rect
       width="173.422"
       height="32"
       x="-530.27246"
       y="-0.86379993"
       ry="3.8402686"
       class="button-background"
       id="rect1"
       style="stroke-width:0.851902" />
    <text
       x="-498.48334"
       y="20.835419"
       class="button-text"
       style="font-style:normal;font-variant:normal;font-weight:bold;font-stretch:normal;font-size:16px;font-family:'Bitstream Vera Sans';-inkscape-font-specification:'Bitstream Vera Sans, Bold';font-variant-ligatures:normal;font-variant-caps:normal;font-variant-numeric:normal;font-variant-east-asian:normal;fill:#cccccc"
       xml:space="default"
       id="text1"><tspan
         x="-498.48334"
         y="20.835419"
         id="tspan2"
         style="font-style:normal;font-variant:normal;font-weight:bold;font-stretch:normal;font-size:16px;font-family:'Bitstream Vera Sans';-inkscape-font-specification:'Bitstream Vera Sans, Bold';font-variant-ligatures:normal;font-variant-caps:normal;font-variant-numeric:normal;font-variant-east-asian:normal">test ÑÉqgyp</tspan></text>
  </g>
  <rect
     width="100"
     height="32"
     x="0"
     y="0"
     ry="3.8402686"
     class="button-background"
     id="rect17" />
  <path
     d="M 32.382813,10.167969 H 35.40625 L 38.5,18.777344 41.585938,10.167969 h 3.023437 l -4.320312,11.664062 h -3.585938 z m 13.773437,0 h 8.117188 v 2.273437 h -5.109375 v 2.171875 h 4.804687 v 2.273438 h -4.804687 v 2.671874 h 5.28125 v 2.273438 H 46.15625 Z m 15.203125,5.171875 q 0.945312,0 1.351562,-0.351563 0.414063,-0.351562 0.414063,-1.15625 0,-0.796875 -0.414063,-1.140625 -0.40625,-0.34375 -1.351562,-0.34375 H 60.09375 v 2.992188 z m -1.265625,2.078125 v 4.414062 H 57.085938 V 10.167969 h 4.593749 q 2.304688,0 3.375,0.773437 1.078125,0.773438 1.078125,2.445313 0,1.15625 -0.5625,1.898437 -0.554687,0.742188 -1.679687,1.09375 0.617187,0.140625 1.101562,0.640625 0.492188,0.492188 0.992188,1.5 l 1.632812,3.3125 h -3.203125 l -1.421875,-2.898438 q -0.429687,-0.874999 -0.875,-1.195312 -0.4375,-0.320312 -1.171875,-0.320312 z"
     class="button-text"
     id="path17" />
  <rect
     width="155.10899"
     height="32"
     x="187.22894"
     y="0"
     ry="3.8402686"
     class="button-background"
     id="rect12"
     style="fill:#e44d26" />
  <path
     d="m 219.22875,10.16797 h 3.02344 l 3.09375,8.60937 3.08594,-8.60937 h 3.02344 L 227.135,21.83203 h -3.58593 z m 13.77344,0 h 8.11719 V 12.4414 H 236.01 v 2.17188 h 4.80469 v 2.27344 H 236.01 v 2.67187 h 5.28125 v 2.27344 h -8.28906 z m 15.20313,5.17187 q 0.94531,0 1.35156,-0.35156 0.41406,-0.35156 0.41406,-1.15625 0,-0.79688 -0.41406,-1.14063 -0.40625,-0.34375 -1.35156,-0.34375 h -1.26563 v 2.99219 z m -1.26563,2.07813 v 4.41406 h -3.00781 V 10.16797 h 4.59375 q 2.30469,0 3.375,0.77343 1.07812,0.77344 1.07812,2.44532 0,1.15625 -0.5625,1.89843 -0.55468,0.74219 -1.67968,1.09375 0.61718,0.14063 1.10156,0.64063 0.49219,0.49219 0.99219,1.5 l 1.63281,3.3125 H 251.26 l -1.42187,-2.89844 q -0.42969,-0.875 -0.875,-1.19531 -0.4375,-0.32031 -1.17188,-0.32031 z m 14.88281,-7.25 h 3.00782 v 4.44531 h 4.4375 v -4.44531 h 3.00781 v 11.66406 h -3.00781 v -4.94531 h -4.4375 v 4.94531 h -3.00782 z m 12,0 h 10.75 v 2.27343 h -3.86718 v 9.39063 H 277.6975 V 12.4414 h -3.875 z m 12.30469,0 h 3.82813 l 2.65625,6.24218 2.67187,-6.24218 h 3.82031 V 21.83203 H 296.26 v -8.53125 l -2.6875,6.28906 h -1.90625 l -2.6875,-6.28906 v 8.53125 h -2.85156 z m 15.92188,0 h 3.00781 v 9.39062 h 5.28125 v 2.27344 h -8.28906 z"
     id="text4"
     class="button-text" />
  <rect
     width="138.32001"
     height="32"
     x="395.436"
     y="0"
     ry="3.8402686"
     class="button-background"
     id="rect11"
     style="fill:#264de4" />
  <path
     d="m 427.43584,10.16015 h 3.02344 l 3.09375,8.60938 3.08594,-8.60938 h 3.02344 l -4.32032,11.66407 h -3.58593 z m 13.77344,0 h 8.11719 v 2.27344 h -5.10938 v 2.17188 h 4.80469 v 2.27343 h -4.80469 v 2.67188 h 5.28125 v 2.27344 h -8.28906 z m 15.20313,5.17188 q 0.94531,0 1.35156,-0.35156 0.41406,-0.35157 0.41406,-1.15625 0,-0.79688 -0.41406,-1.14063 -0.40625,-0.34375 -1.35156,-0.34375 h -1.26563 v 2.99219 z m -1.26563,2.07812 v 4.41407 h -3.00781 V 10.16015 h 4.59375 q 2.30469,0 3.375,0.77344 1.07812,0.77344 1.07812,2.44531 0,1.15625 -0.5625,1.89844 -0.55468,0.74219 -1.67968,1.09375 0.61718,0.14063 1.10156,0.64063 0.49219,0.49218 0.99219,1.5 l 1.63281,3.3125 h -3.20313 l -1.42187,-2.89844 q -0.42969,-0.875 -0.875,-1.19531 -0.4375,-0.32032 -1.17188,-0.32032 z m 24.13281,3.77344 q -0.82812,0.42969 -1.72656,0.64844 -0.89844,0.21875 -1.875,0.21875 -2.91406,0 -4.61719,-1.625 -1.70312,-1.63281 -1.70312,-4.42188 0,-2.79687 1.70312,-4.42187 1.70313,-1.6328101 4.61719,-1.6328101 0.97656,0 1.875,0.2187501 0.89844,0.21875 1.72656,0.64843 v 2.41407 q -0.83593,-0.57032 -1.64843,-0.83594 -0.8125,-0.26563 -1.71094,-0.26563 -1.60938,0 -2.53125,1.03125 -0.92188,1.03125 -0.92188,2.84375 0,1.80469 0.92188,2.83594 0.92187,1.03125 2.53125,1.03125 0.89844,0 1.71094,-0.26562 0.8125,-0.26563 1.64843,-0.83594 z m 10.90625,-10.65625 v 2.46875 q -0.96093,-0.42969 -1.875,-0.64844 -0.91406,-0.21875 -1.72656,-0.21875 -1.07812,0 -1.59375,0.29688 -0.51562,0.29687 -0.51562,0.92187 0,0.46875 0.34375,0.73438 0.35156,0.25781 1.26562,0.44531 l 1.28125,0.25781 q 1.94531,0.39063 2.76563,1.1875 0.82031,0.79688 0.82031,2.26563 0,1.92969 -1.14844,2.875 -1.14062,0.9375 -3.49219,0.9375 -1.10937,0 -2.22656,-0.21094 -1.11719,-0.21094 -2.23437,-0.625 v -2.53906 q 1.11718,0.59375 2.15625,0.89844 1.04687,0.29687 2.01562,0.29687 0.98438,0 1.50781,-0.32812 0.52344,-0.32813 0.52344,-0.9375 0,-0.54688 -0.35937,-0.84375 -0.35157,-0.29688 -1.41407,-0.53125 l -1.16406,-0.25782 q -1.75,-0.375 -2.5625,-1.19531 -0.80469,-0.82031 -0.80469,-2.21094 0,-1.74218 1.125,-2.67968 1.125,-0.9375001 3.23438,-0.9375001 0.96094,0 1.97656,0.1484301 1.01563,0.14063 2.10156,0.42969 z m 10.80469,0 v 2.46875 q -0.96094,-0.42969 -1.875,-0.64844 -0.91406,-0.21875 -1.72656,-0.21875 -1.07813,0 -1.59375,0.29688 -0.51563,0.29687 -0.51563,0.92187 0,0.46875 0.34375,0.73438 0.35157,0.25781 1.26563,0.44531 l 1.28125,0.25781 q 1.94531,0.39063 2.76562,1.1875 0.82032,0.79688 0.82032,2.26563 0,1.92969 -1.14844,2.875 -1.14063,0.9375 -3.49219,0.9375 -1.10937,0 -2.22656,-0.21094 -1.11719,-0.21094 -2.23438,-0.625 v -2.53906 q 1.11719,0.59375 2.15625,0.89844 1.04688,0.29687 2.01563,0.29687 0.98437,0 1.50781,-0.32812 0.52344,-0.32813 0.52344,-0.9375 0,-0.54688 -0.35938,-0.84375 -0.35156,-0.29688 -1.41406,-0.53125 l -1.16406,-0.25782 q -1.75,-0.375 -2.5625,-1.19531 -0.80469,-0.82031 -0.80469,-2.21094 0,-1.74218 1.125,-2.67968 1.125,-0.9375001 3.23438,-0.9375001 0.96093,0 1.97656,0.1484301 1.01562,0.14063 2.10156,0.42969 z"
     class="button-text"
     id="path11" />
  <rect
     width="117.43"
     height="32"
     x="589.98737"
     y="0"
     ry="3.8402686"
     class="button-background"
     id="rect10"
     style="fill:#d6ba32" />
  <path
     d="m 619.98753,10.16015 h 3.02344 l 3.09375,8.60938 3.08594,-8.60938 h 3.02344 l -4.32032,11.66407 h -3.58593 z m 13.77344,0 h 8.11719 v 2.27344 h -5.10938 v 2.17188 h 4.80469 v 2.27343 h -4.80469 v 2.67188 h 5.28125 v 2.27344 h -8.28906 z m 15.20313,5.17188 q 0.94531,0 1.35156,-0.35156 0.41406,-0.35157 0.41406,-1.15625 0,-0.79688 -0.41406,-1.14063 -0.40625,-0.34375 -1.35156,-0.34375 h -1.26563 v 2.99219 z m -1.26563,2.07812 v 4.41407 h -3.00781 V 10.16015 h 4.59375 q 2.30469,0 3.375,0.77344 1.07812,0.77344 1.07812,2.44531 0,1.15625 -0.5625,1.89844 -0.55468,0.74219 -1.67968,1.09375 0.61718,0.14063 1.10156,0.64063 0.49219,0.49218 0.99219,1.5 l 1.63281,3.3125 h -3.20313 l -1.42187,-2.89844 q -0.42969,-0.875 -0.875,-1.19531 -0.4375,-0.32032 -1.17188,-0.32032 z m 14.88281,-7.25 h 3.00782 V 20.6914 q 0,2.17969 -1.1875,3.25782 -1.17969,1.07812 -3.57813,1.07812 H 660.2141 V 22.7539 h 0.46875 q 0.9375,0 1.41406,-0.52343 0.48437,-0.52344 0.48437,-1.53907 z m 14.07032,0.36719 v 2.46875 q -0.96094,-0.42969 -1.875,-0.64844 -0.91407,-0.21875 -1.72657,-0.21875 -1.07812,0 -1.59375,0.29688 -0.51562,0.29687 -0.51562,0.92187 0,0.46875 0.34375,0.73438 0.35156,0.25781 1.26562,0.44531 l 1.28125,0.25781 q 1.94532,0.39063 2.76563,1.1875 0.82031,0.79688 0.82031,2.26563 0,1.92969 -1.14844,2.875 -1.14062,0.9375 -3.49218,0.9375 -1.10938,0 -2.22657,-0.21094 -1.11718,-0.21094 -2.23437,-0.625 v -2.53906 q 1.11719,0.59375 2.15625,0.89844 1.04687,0.29687 2.01562,0.29687 0.98438,0 1.50782,-0.32812 0.52343,-0.32813 0.52343,-0.9375 0,-0.54688 -0.35937,-0.84375 -0.35156,-0.29688 -1.41406,-0.53125 l -1.16407,-0.25782 q -1.75,-0.375 -2.5625,-1.19531 -0.80468,-0.82031 -0.80468,-2.21094 0,-1.74218 1.125,-2.67968 1.125,-0.9375001 3.23437,-0.9375001 0.96094,0 1.97656,0.1484301 1.01563,0.14063 2.10157,0.42969 z"
     id="text6"
     class="button-text"
     style="fill:#4d4d4d" />
  <rect
     width="155.10899"
     height="32"
     x="187.22894"
     y="37"
     ry="3.8402686"
     class="button-background"
     id="rect15"
     style="fill:#f16529" />
  <path
     d="m 219.22875,47.167969 h 3.02344 l 3.09375,8.60937 3.08594,-8.60937 h 3.02344 l -4.32032,11.66406 h -3.58593 z m 13.77344,0 h 8.11719 v 2.27343 H 236.01 v 2.17188 h 4.80469 v 2.27344 H 236.01 v 2.67187 h 5.28125 v 2.27344 h -8.28906 z m 15.20313,5.17187 q 0.94531,0 1.35156,-0.35156 0.41406,-0.35156 0.41406,-1.15625 0,-0.79688 -0.41406,-1.14063 -0.40625,-0.34375 -1.35156,-0.34375 h -1.26563 v 2.99219 z m -1.26563,2.07813 v 4.41406 h -3.00781 v -11.66406 h 4.59375 q 2.30469,0 3.375,0.77343 1.07812,0.77344 1.07812,2.44532 0,1.15625 -0.5625,1.89843 -0.55468,0.74219 -1.67968,1.09375 0.61718,0.14063 1.10156,0.64063 0.49219,0.49219 0.99219,1.5 l 1.63281,3.3125 H 251.26 l -1.42187,-2.89844 q -0.42969,-0.875 -0.875,-1.19531 -0.4375,-0.32031 -1.17188,-0.32031 z m 14.88281,-7.25 h 3.00782 v 4.44531 h 4.4375 v -4.44531 h 3.00781 v 11.66406 h -3.00781 v -4.94531 h -4.4375 v 4.94531 h -3.00782 z m 12,0 h 10.75 v 2.27343 h -3.86718 v 9.39063 h -3.00782 v -9.39063 h -3.875 z m 12.30469,0 h 3.82813 l 2.65625,6.24218 2.67187,-6.24218 h 3.82031 v 11.66406 H 296.26 v -8.53125 l -2.6875,6.28906 h -1.90625 l -2.6875,-6.28906 v 8.53125 h -2.85156 z m 15.92188,0 h 3.00781 v 9.39062 h 5.28125 v 2.27344 h -8.28906 z"
     id="path15"
     class="button-text" />
  <rect
     width="144"
     height="32"
     x="0"
     y="87.932617"
     ry="3.8402686"
     class="button-background"
     id="rect2" />
  <text
     x="32.03125"
     y="109.63184"
     class="button-text"
     xml:space="default"
     id="text2"><tspan
       x="32.03125"
       y="109.63184"
       id="tspan16"
       style="font-style:normal;font-variant:normal;font-weight:bold;font-stretch:normal;font-size:16px;font-family:'Bitstream Vera Sans';-inkscape-font-specification:'Bitstream Vera Sans, Bold';font-variant-ligatures:normal;font-variant-caps:normal;font-variant-numeric:normal;font-variant-east-asian:normal">VER MÁS</tspan></text>
  <rect
     width="100"
     height="32"
     x="0"
     y="37"
     ry="3.8402686"
     class="button-background"
     id="rect16"
     style="fill:#2ca05a" />
  <path
     d="M 32.382813,47.167968 H 35.40625 L 38.5,55.777343 41.585938,47.167968 h 3.023437 L 40.289063,58.83203 h -3.585938 z m 13.773437,0 h 8.117188 v 2.273437 h -5.109375 v 2.171875 h 4.804687 v 2.273438 h -4.804687 v 2.671874 h 5.28125 V 58.83203 H 46.15625 Z m 15.203125,5.171875 q 0.945312,0 1.351562,-0.351563 0.414063,-0.351562 0.414063,-1.15625 0,-0.796875 -0.414063,-1.140625 -0.40625,-0.34375 -1.351562,-0.34375 H 60.09375 v 2.992188 z M 60.09375,54.417968 V 58.83203 H 57.085938 V 47.167968 h 4.593749 q 2.304688,0 3.375,0.773437 1.078125,0.773438 1.078125,2.445313 0,1.15625 -0.5625,1.898437 -0.554687,0.742188 -1.679687,1.09375 0.617187,0.140625 1.101562,0.640625 0.492188,0.492188 0.992188,1.5 l 1.632812,3.3125 h -3.203125 l -1.421875,-2.898438 q -0.429687,-0.874999 -0.875,-1.195312 -0.4375,-0.320312 -1.171875,-0.320312 z"
     class="button-text"
     id="path16"
     style="fill:#ffffff" />
  <rect
     width="144"
     height="32"
     x="0"
     y="125.24408"
     ry="3.8402686"
     class="button-background"
     id="rect18"
     style="fill:#2ca05a;fill-opacity:1" />
  <text
     x="32.03125"
     y="146.9433"
     class="button-text"
     id="text18"
     style="fill:#ffffff"><tspan
       x="32.03125"
       y="146.9433"
       id="tspan18"
       style="font-style:normal;font-variant:normal;font-weight:bold;font-stretch:normal;font-size:16px;font-family:'Bitstream Vera Sans';-inkscape-font-specification:'Bitstream Vera Sans, Bold';font-variant-ligatures:normal;font-variant-caps:normal;font-variant-numeric:normal;font-variant-east-asian:normal;fill:#ffffff">VER MÁS</tspan></text>
  <rect
     width="138.32001"
     height="32"
     x="395.436"
     y="37"
     ry="3.8402686"
     class="button-background"
     id="rect19"
     style="fill:#2965f1" />
  <path
     d="m 427.43584,47.16015 h 3.02344 l 3.09375,8.60938 3.08594,-8.60938 h 3.02344 l -4.32032,11.66407 h -3.58593 z m 13.77344,0 h 8.11719 v 2.27344 h -5.10938 v 2.17188 h 4.80469 v 2.27343 h -4.80469 v 2.67188 h 5.28125 v 2.27344 h -8.28906 z m 15.20313,5.17188 q 0.94531,0 1.35156,-0.35156 0.41406,-0.35157 0.41406,-1.15625 0,-0.79688 -0.41406,-1.14063 -0.40625,-0.34375 -1.35156,-0.34375 h -1.26563 v 2.99219 z m -1.26563,2.07812 v 4.41407 h -3.00781 V 47.16015 h 4.59375 q 2.30469,0 3.375,0.77344 1.07812,0.77344 1.07812,2.44531 0,1.15625 -0.5625,1.89844 -0.55468,0.74219 -1.67968,1.09375 0.61718,0.14063 1.10156,0.64063 0.49219,0.49218 0.99219,1.5 l 1.63281,3.3125 h -3.20313 l -1.42187,-2.89844 q -0.42969,-0.875 -0.875,-1.19531 -0.4375,-0.32032 -1.17188,-0.32032 z m 24.13281,3.77344 q -0.82812,0.42969 -1.72656,0.64844 -0.89844,0.21875 -1.875,0.21875 -2.91406,0 -4.61719,-1.625 -1.70312,-1.63281 -1.70312,-4.42188 0,-2.79687 1.70312,-4.42187 1.70313,-1.63281 4.61719,-1.63281 0.97656,0 1.875,0.21875 0.89844,0.21875 1.72656,0.64843 v 2.41407 q -0.83593,-0.57032 -1.64843,-0.83594 -0.8125,-0.26563 -1.71094,-0.26563 -1.60938,0 -2.53125,1.03125 -0.92188,1.03125 -0.92188,2.84375 0,1.80469 0.92188,2.83594 0.92187,1.03125 2.53125,1.03125 0.89844,0 1.71094,-0.26562 0.8125,-0.26563 1.64843,-0.83594 z m 10.90625,-10.65625 v 2.46875 q -0.96093,-0.42969 -1.875,-0.64844 -0.91406,-0.21875 -1.72656,-0.21875 -1.07812,0 -1.59375,0.29688 -0.51562,0.29687 -0.51562,0.92187 0,0.46875 0.34375,0.73438 0.35156,0.25781 1.26562,0.44531 l 1.28125,0.25781 q 1.94531,0.39063 2.76563,1.1875 0.82031,0.79688 0.82031,2.26563 0,1.92969 -1.14844,2.875 -1.14062,0.9375 -3.49219,0.9375 -1.10937,0 -2.22656,-0.21094 -1.11719,-0.21094 -2.23437,-0.625 v -2.53906 q 1.11718,0.59375 2.15625,0.89844 1.04687,0.29687 2.01562,0.29687 0.98438,0 1.50781,-0.32812 0.52344,-0.32813 0.52344,-0.9375 0,-0.54688 -0.35937,-0.84375 -0.35157,-0.29688 -1.41407,-0.53125 l -1.16406,-0.25782 q -1.75,-0.375 -2.5625,-1.19531 -0.80469,-0.82031 -0.80469,-2.21094 0,-1.74218 1.125,-2.67968 1.125,-0.9375 3.23438,-0.9375 0.96094,0 1.97656,0.14843 1.01563,0.14063 2.10156,0.42969 z m 10.80469,0 v 2.46875 q -0.96094,-0.42969 -1.875,-0.64844 -0.91406,-0.21875 -1.72656,-0.21875 -1.07813,0 -1.59375,0.29688 -0.51563,0.29687 -0.51563,0.92187 0,0.46875 0.34375,0.73438 0.35157,0.25781 1.26563,0.44531 l 1.28125,0.25781 q 1.94531,0.39063 2.76562,1.1875 0.82032,0.79688 0.82032,2.26563 0,1.92969 -1.14844,2.875 -1.14063,0.9375 -3.49219,0.9375 -1.10937,0 -2.22656,-0.21094 -1.11719,-0.21094 -2.23438,-0.625 v -2.53906 q 1.11719,0.59375 2.15625,0.89844 1.04688,0.29687 2.01563,0.29687 0.98437,0 1.50781,-0.32812 0.52344,-0.32813 0.52344,-0.9375 0,-0.54688 -0.35938,-0.84375 -0.35156,-0.29688 -1.41406,-0.53125 l -1.16406,-0.25782 q -1.75,-0.375 -2.5625,-1.19531 -0.80469,-0.82031 -0.80469,-2.21094 0,-1.74218 1.125,-2.67968 1.125,-0.9375 3.23438,-0.9375 0.96093,0 1.97656,0.14843 1.01562,0.14063 2.10156,0.42969 z"
     class="button-text"
     id="path19"
     style="fill:#ffffff" />
  <rect
     width="117.43"
     height="32"
     x="589.98737"
     y="37"
     ry="3.8402686"
     class="button-background"
     id="rect20"
     style="fill:#ffda3e" />
  <path
     d="m 619.98753,47.16015 h 3.02344 l 3.09375,8.609381 3.08594,-8.609381 h 3.02344 l -4.32032,11.664071 h -3.58593 z m 13.77344,0 h 8.11719 v 2.273441 h -5.10938 v 2.17188 h 4.80469 v 2.27343 h -4.80469 v 2.67188 h 5.28125 v 2.27344 h -8.28906 z m 15.20313,5.171881 q 0.94531,0 1.35156,-0.35156 0.41406,-0.35157 0.41406,-1.15625 0,-0.79688 -0.41406,-1.14063 -0.40625,-0.34375 -1.35156,-0.34375 h -1.26563 v 2.99219 z m -1.26563,2.07812 v 4.41407 h -3.00781 V 47.16015 h 4.59375 q 2.30469,0 3.375,0.77344 1.07812,0.773441 1.07812,2.445311 0,1.15625 -0.5625,1.89844 -0.55468,0.74219 -1.67968,1.09375 0.61718,0.14063 1.10156,0.64063 0.49219,0.49218 0.99219,1.5 l 1.63281,3.3125 h -3.20313 l -1.42187,-2.89844 q -0.42969,-0.875 -0.875,-1.19531 -0.4375,-0.32032 -1.17188,-0.32032 z m 14.88281,-7.250001 h 3.00782 v 10.531251 q 0,2.17969 -1.1875,3.25782 -1.17969,1.07812 -3.57813,1.07812 h -0.60937 v -2.27344 h 0.46875 q 0.9375,0 1.41406,-0.52343 0.48437,-0.52344 0.48437,-1.53907 z m 14.07032,0.36719 v 2.468751 q -0.96094,-0.42969 -1.875,-0.64844 -0.91407,-0.21875 -1.72657,-0.21875 -1.07812,0 -1.59375,0.29688 -0.51562,0.29687 -0.51562,0.92187 0,0.46875 0.34375,0.73438 0.35156,0.25781 1.26562,0.44531 l 1.28125,0.25781 q 1.94532,0.39063 2.76563,1.1875 0.82031,0.79688 0.82031,2.26563 0,1.92969 -1.14844,2.875 -1.14062,0.9375 -3.49218,0.9375 -1.10938,0 -2.22657,-0.21094 -1.11718,-0.21094 -2.23437,-0.625 v -2.53906 q 1.11719,0.59375 2.15625,0.89844 1.04687,0.29687 2.01562,0.29687 0.98438,0 1.50782,-0.32812 0.52343,-0.32813 0.52343,-0.9375 0,-0.54688 -0.35937,-0.84375 -0.35156,-0.29688 -1.41406,-0.53125 l -1.16407,-0.25782 q -1.75,-0.375 -2.5625,-1.19531 -0.80468,-0.82031 -0.80468,-2.21094 0,-1.74218 1.125,-2.679681 1.125,-0.9375 3.23437,-0.9375 0.96094,0 1.97656,0.14843 1.01563,0.14063 2.10157,0.42969 z"
     id="path20"
     class="button-text"
     style="fill:#1a1a1a" />
</svg>
