<svg version="1.1" viewBox="0 0 118 32" xmlns="http://www.w3.org/2000/svg"><style id="button-styles">.button{cursor:pointer}.button-background {fill:#d6ba32}.button:hover .button-background {fill: #ffda3e;}.button-text {fill:#4d4d4d} .button:hover .button-text{ fill: #1a1a1a }</style><g class="button"><rect class="button-background" width="118" height="32" ry="3.8403"/><path class="button-text" d="m30.285 10.16h3.0234l3.0937 8.6094 3.086-8.6094h3.0234l-4.3203 11.664h-3.5859zm13.773 0h8.1172v2.2734h-5.1094v2.1719h4.8047v2.2734h-4.8047v2.6719h5.2813v2.2734h-8.2891zm15.203 5.1719q0.9453 0 1.3516-0.35156 0.4141-0.35157 0.4141-1.1562 0-0.79688-0.4141-1.1406-0.4063-0.34375-1.3516-0.34375h-1.2656v2.9922zm-1.2656 2.0781v4.4141h-3.0078v-11.664h4.5937q2.3047 0 3.375 0.77344 1.0782 0.77344 1.0782 2.4453 0 1.1562-0.5625 1.8984-0.5547 0.74219-1.6797 1.0938 0.6172 0.14063 1.1015 0.64063 0.4922 0.49218 0.9922 1.5l1.6328 3.3125h-3.2031l-1.4219-2.8984q-0.4296-0.875-0.875-1.1953-0.4375-0.32032-1.1718-0.32032zm14.883-7.25h3.0078v10.531q0 2.1797-1.1875 3.2578-1.1797 1.0781-3.5781 1.0781h-0.6094v-2.2734h0.4688q0.9375 0 1.414-0.52343 0.4844-0.52344 0.4844-1.5391zm14.07 0.36719v2.4688q-0.9609-0.42969-1.875-0.64844-0.914-0.21875-1.7265-0.21875-1.0782 0-1.5938 0.29688-0.5156 0.29687-0.5156 0.92187 0 0.46875 0.3437 0.73438 0.3516 0.25781 1.2657 0.44531l1.2812 0.25781q1.9453 0.39063 2.7656 1.1875 0.8204 0.79688 0.8204 2.2656 0 1.9297-1.1485 2.875-1.1406 0.9375-3.4922 0.9375-1.1093 0-2.2265-0.21094t-2.2344-0.625v-2.5391q1.1172 0.59375 2.1562 0.89844 1.0469 0.29687 2.0157 0.29687 0.9843 0 1.5078-0.32812 0.5234-0.32813 0.5234-0.9375 0-0.54688-0.3594-0.84375-0.3515-0.29688-1.414-0.53125l-1.1641-0.25782q-1.75-0.375-2.5625-1.1953-0.8047-0.82031-0.8047-2.2109 0-1.7422 1.125-2.6797t3.2344-0.9375q0.9609 0 1.9766 0.14843 1.0156 0.14063 2.1015 0.42969z"/></g></svg>
