<svg version="1.1" viewBox="0 0 138 32" xmlns="http://www.w3.org/2000/svg"><style id="button-styles">.button{cursor:pointer}.button-background {fill: #264de4;}.button:hover .button-background {fill: #2965f1;}.button-text {fill: #ccc} .button:hover .button-text{ fill: #ffffff }</style><g class="button"><rect class="button-background" width="138" height="32" ry="3.8403"/><path class="button-text" d="m31.84 10.16h3.0234l3.0938 8.6094 3.0859-8.6094h3.0234l-4.3203 11.664h-3.5859zm13.773 0h8.1172v2.2734h-5.1094v2.1719h4.8047v2.2734h-4.8047v2.6719h5.2812v2.2734h-8.2891zm15.203 5.1719q0.94531 0 1.3516-0.35156 0.41406-0.35157 0.41406-1.1562 0-0.79688-0.41406-1.1406-0.40625-0.34375-1.3516-0.34375h-1.2656v2.9922zm-1.2656 2.0781v4.4141h-3.0078v-11.664h4.5938q2.3047 0 3.375 0.77344 1.0781 0.77344 1.0781 2.4453 0 1.1562-0.5625 1.8984-0.55468 0.74219-1.6797 1.0938 0.61718 0.14063 1.1016 0.64063 0.49219 0.49218 0.99219 1.5l1.6328 3.3125h-3.2031l-1.4219-2.8984q-0.42969-0.875-0.875-1.1953-0.4375-0.32032-1.1719-0.32032zm24.133 3.7734q-0.82812 0.42969-1.7266 0.64844t-1.875 0.21875q-2.9141 0-4.6172-1.625-1.7031-1.6328-1.7031-4.4219 0-2.7969 1.7031-4.4219 1.7031-1.6328 4.6172-1.6328 0.97656 0 1.875 0.21875t1.7266 0.64843v2.4141q-0.83593-0.57032-1.6484-0.83594-0.8125-0.26563-1.7109-0.26563-1.6094 0-2.5312 1.0312-0.92188 1.0312-0.92188 2.8438 0 1.8047 0.92188 2.8359 0.92187 1.0312 2.5312 1.0312 0.89844 0 1.7109-0.26562 0.8125-0.26563 1.6484-0.83594zm10.906-10.656v2.4688q-0.96093-0.42969-1.875-0.64844-0.91406-0.21875-1.7266-0.21875-1.0781 0-1.5938 0.29688-0.51562 0.29687-0.51562 0.92187 0 0.46875 0.34375 0.73438 0.35156 0.25781 1.2656 0.44531l1.2812 0.25781q1.9453 0.39063 2.7656 1.1875 0.82031 0.79688 0.82031 2.2656 0 1.9297-1.1484 2.875-1.1406 0.9375-3.4922 0.9375-1.1094 0-2.2266-0.21094t-2.2344-0.625v-2.5391q1.1172 0.59375 2.1562 0.89844 1.0469 0.29687 2.0156 0.29687 0.98438 0 1.5078-0.32812 0.52344-0.32813 0.52344-0.9375 0-0.54688-0.35937-0.84375-0.35157-0.29688-1.4141-0.53125l-1.1641-0.25782q-1.75-0.375-2.5625-1.1953-0.80469-0.82031-0.80469-2.2109 0-1.7422 1.125-2.6797t3.2344-0.9375q0.96094 0 1.9766 0.14843 1.0156 0.14063 2.1016 0.42969zm10.805 0v2.4688q-0.96094-0.42969-1.875-0.64844t-1.7266-0.21875q-1.0781 0-1.5938 0.29688-0.51563 0.29687-0.51563 0.92187 0 0.46875 0.34375 0.73438 0.35157 0.25781 1.2656 0.44531l1.2812 0.25781q1.9453 0.39063 2.7656 1.1875 0.82032 0.79688 0.82032 2.2656 0 1.9297-1.1484 2.875-1.1406 0.9375-3.4922 0.9375-1.1094 0-2.2266-0.21094t-2.2344-0.625v-2.5391q1.1172 0.59375 2.1562 0.89844 1.0469 0.29687 2.0156 0.29687 0.98437 0 1.5078-0.32812 0.52344-0.32813 0.52344-0.9375 0-0.54688-0.35938-0.84375-0.35156-0.29688-1.4141-0.53125l-1.1641-0.25782q-1.75-0.375-2.5625-1.1953-0.80469-0.82031-0.80469-2.2109 0-1.7422 1.125-2.6797t3.2344-0.9375q0.96093 0 1.9766 0.14843 1.0156 0.14063 2.1016 0.42969z" fill="#ccc"/></g></svg>