<svg version="1.1" viewBox="0 0 155.11 32" xmlns="http://www.w3.org/2000/svg"><style id="button-styles">.button{cursor:pointer}.button-background {fill: #e44d26;}.button:hover .button-background {fill: #f16529;}.button-text {fill: #ccc} .button:hover .button-text{ fill: #ffffff }</style><g class="button"><rect class="button-background" width="155.11" height="32" ry="3.8403" fill="#e44d26"/><path class="button-text" d="m32 10.168h3.0234l3.0938 8.6094 3.0859-8.6094h3.0234l-4.3203 11.664h-3.5859zm13.773 0h8.1172v2.2734h-5.1094v2.1719h4.8047v2.2734h-4.8047v2.6719h5.2812v2.2734h-8.2891zm15.203 5.1719q0.94531 0 1.3516-0.35156 0.41406-0.35156 0.41406-1.1562 0-0.79688-0.41406-1.1406-0.40625-0.34375-1.3516-0.34375h-1.2656v2.9922zm-1.2656 2.0781v4.4141h-3.0078v-11.664h4.5938q2.3047 0 3.375 0.77343 1.0781 0.77344 1.0781 2.4453 0 1.1562-0.5625 1.8984-0.55468 0.74219-1.6797 1.0938 0.61718 0.14063 1.1016 0.64063 0.49219 0.49219 0.99219 1.5l1.6328 3.3125h-3.2031l-1.4219-2.8984q-0.42969-0.875-0.875-1.1953-0.4375-0.32031-1.1719-0.32031zm14.883-7.25h3.0078v4.4453h4.4375v-4.4453h3.0078v11.664h-3.0078v-4.9453h-4.4375v4.9453h-3.0078zm12 0h10.75v2.2734h-3.8672v9.3906h-3.0078v-9.3906h-3.875zm12.305 0h3.8281l2.6562 6.2422 2.6719-6.2422h3.8203v11.664h-2.8438v-8.5312l-2.6875 6.2891h-1.9062l-2.6875-6.2891v8.5312h-2.8516zm15.922 0h3.0078v9.3906h5.2813v2.2734h-8.2891z"/></g></svg>