<svg version="1.1" viewBox="0 0 460 500" xmlns="http://www.w3.org/2000/svg" xmlns:xlink="http://www.w3.org/1999/xlink">
<path d="m0 19.162h440.82v461.52h-440.82z" fill="#e1f0ff"/>
<path d="m0 480.76h460v19.24h-460zm440.82-470.55h19.176v489.79h-19.176zm-440.82-3.2501h19.176v493.04h-19.176zm0-6.9645h460v19.24h-460z" fill="#446eb1"/>
<path d="m57.452 57.642h345.02v115.36h-345.02zm0 173.08h38.353v38.479h-38.353zm76.705 0h38.353v38.479h-38.353zm76.628 0h38.353v38.479h-38.353zm76.705 0h114.98v38.479h-114.98zm0 76.959h114.98v115.36h-114.98zm-76.705 0h38.353v38.479h-38.353zm0 76.881h38.353v38.479h-38.353zm-153.33-76.881h114.98v38.479h-114.98zm0 76.881h114.98v38.479h-114.98z" fill="#6d9ee8"/>
</svg>
