<svg version="1.1" viewBox="0 0 600 666" xmlns="http://www.w3.org/2000/svg" xmlns:xlink="http://www.w3.org/1999/xlink">
<path d="m555.18 629.96 15.899 19.665c-13.45 10.535-30.122 16.374-47.666 16.374-3.5568 0-7.0872-0.23976-10.573-0.71396l3.4975-24.895c2.3277 0.31635 4.6896 0.47718 7.0756 0.47718 11.716 0 22.796-3.8802 31.767-10.907zm-212.12-117.84c42.204 0 76.417 33.676 76.417 75.218 0 41.542-34.213 75.218-76.417 75.218-42.204 0-76.417-33.676-76.417-75.218 0-41.542 34.213-75.218 76.417-75.218zm130.32 88.613c2.847 13.706 11.446 25.613 23.553 32.857l-13.261 21.476c-18.14-10.853-31.028-28.697-35.307-49.299zm-226.82-600.74c40.068 0 73.971 25.484 86.916 60.676h98.012c33.903 0 61.643 27.304 61.643 60.676v182.03h-61.643v-182.03h-61.643v91.014h-246.57v-91.014h-61.643v455.07h154.11v60.676h-154.11c-33.903 0-61.643-27.304-61.643-60.676v-455.07c-0.15863-33.371 27.739-60.676 61.643-60.676h98.012c12.945-35.192 46.848-60.676 86.916-60.676zm348.76 564.59c2.9137 7.8014 4.5025 16.061 4.6732 24.747 0.014 13.173-2.8157 24.947-8.4125 35.673l-22.712-11.482c3.7213-7.1322 5.6022-14.958 5.5947-23.932-0.1134-5.6498-1.1697-11.146-3.1077-16.335zm-111.29-38.665 13.142 21.547c-12.146 7.1779-20.812 19.042-23.735 32.729l-24.986-5.1696c4.3932-20.573 17.379-38.351 35.579-49.107zm39.38-10.716c21.588 0 41.765 8.8535 56.16 24.124l-18.716 17.094c-9.6126-10.197-23.033-16.086-37.443-16.086-2.114 0.0189-4.684 0.1665-6.7519 0.4339l-3.3356-24.917c3.0963-0.4016 6.9349-0.62138 10.088-0.64935zm-4.7573-175.92c42.204 0 76.417 33.676 76.417 75.218 0 41.542-34.213 75.218-76.417 75.218-42.204 0-76.417-33.676-76.417-75.218 0-41.542 34.213-75.218 76.417-75.218zm-175.6 0c42.204 0 76.417 33.676 76.417 75.218 0 41.542-34.213 75.218-76.417 75.218-42.204 0-76.417-33.676-76.417-75.218 0-41.542 34.213-75.218 76.417-75.218zm-96.492-278.61c-16.952 0-30.821 13.652-30.821 30.338 0 16.686 13.87 30.338 30.821 30.338 16.952 0 30.821-13.652 30.821-30.338 0-16.686-13.87-30.338-30.821-30.338z" fill="#4285f4"/>
</svg>
