<svg version="1.1" viewBox="0 0 675 725" xmlns="http://www.w3.org/2000/svg">
<path d="m512.5 0.046873h-500c-6.9036 0-12.5 5.5961-12.5 12.499v699.95c1.1046e-6 6.9031 5.5964 12.499 12.5 12.499h500c6.9036 0 12.5-5.5961 12.5-12.499v-699.95c0-6.9031-5.5964-12.499-12.5-12.499z"/>
<path d="m674.28 158.31-49.912-149.72a12.5 12.499 0 0 0-23.75 0l-49.888 149.72a12.8 12.799 0 0 0-0.725 4.2247v499.97a62.5 62.496 0 0 0 125 0v-499.97a12.825 12.824 0 0 0-0.725-4.2247z"/>
<path d="m25 25.045v674.96h475v-674.96h-475zm62.5 24.998h350c6.9035 0 12.5 5.5969 12.5 12.5v149.99c0 6.9031-5.5965 12.5-12.5 12.5h-350c-6.9035 0-12.5-5.5969-12.5-12.5v-149.99c0-6.9031 5.5965-12.5 12.5-12.5zm0 199.99h350a12.5 12.499 0 0 1 0 24.998h-350a12.5 12.499 0 0 1 0-24.998zm0 49.996h350a12.5 12.499 0 0 1 0 24.998h-350a12.5 12.499 0 0 1 0-24.998zm0 49.996h350a12.501 12.5 0 0 1 0 25h-350a12.501 12.5 0 0 1 0-25zm175 49.994a137.19 137.18 0 0 1 19.912 1.4531 12.5 12.499 0 0 1 10.4 9.7129l3.5 16.098a116.02 116.02 0 0 1 20.225 8.375l13.863-8.9121a12.5 12.499 0 0 1 14.225 0.5 137.19 137.18 0 0 1 28.15 28.148 12.5 12.499 0 0 1 0.5 14.225l-8.9258 13.848a115.68 115.67 0 0 1 8.3887 20.236l16.1 3.5a12.5 12.499 0 0 1 9.7129 10.4 137.19 137.18 0 0 1 0 39.822 12.5 12.499 0 0 1-9.7129 10.398l-16.1 3.5a116.06 116.06 0 0 1-8.375 20.225l8.9121 13.861a12.5 12.499 0 0 1-0.5 14.223 137.19 137.18 0 0 1-28.15 28.148 12.5 12.499 0 0 1-14.225 0.5l-13.85-8.9238a115.74 115.73 0 0 1-20.238 8.3867l-3.5 16.1a12.5 12.499 0 0 1-10.4 9.7109 137.14 137.13 0 0 1-39.824 0 12.5 12.499 0 0 1-10.4-9.7109l-3.5-16.1a116.11 116.1 0 0 1-20.225-8.375l-13.863 8.9121a12.5 12.499 0 0 1-14.225-0.5 137.18 137.17 0 0 1-28.15-28.148 12.5 12.499 0 0 1-0.5-14.223l8.9258-13.85a115.74 115.73 0 0 1-8.3887-20.236l-16.1-3.5a12.5 12.499 0 0 1-9.7129-10.398 137.14 137.13 0 0 1 0-39.822 12.5 12.499 0 0 1 9.7129-10.4l16.1-3.5a116.09 116.08 0 0 1 8.375-20.223l-8.9121-13.861a12.5 12.499 0 0 1 0.5-14.225 137.19 137.18 0 0 1 28.15-28.148 12.5 12.499 0 0 1 14.225-0.5l13.85 8.9238a115.68 115.67 0 0 1 20.238-8.3867l3.5-16.098a12.5 12.499 0 0 1 10.4-9.7129 137.19 137.18 0 0 1 19.912-1.4531zm-2.2695 92.004a45.6 45.597 0 0 0 2.2695 91.139v-0.05078a45.612 45.61 0 0 0 45.6-45.598 45.6 45.597 0 0 0-47.869-45.49z" fill="#d8d8fc"/>
<rect x="575" y="175.04" width="75" height="424.97" fill="#fdbf00"/>
<path d="m575 662.5a37.5 37.498 0 0 0 75 0v-37.498h-75z" fill="#f03800"/>
<path d="m612.5 52.069-32.662 97.969h65.325z" fill="#ffcebf" stroke-width="12.5"/>
<rect x="100" y="75.042" width="325" height="124.99" fill="#4bb9ec"/>
<path d="m350.48 517.13a90.488 90.482 0 0 0-11.35-27.398 12.5 12.499 0 0 1 0.0875-13.374l8.1625-12.687a115 114.99 0 0 0-11.025-11.024l-12.688 8.162a12.5 12.499 0 0 1-13.375 0.0875 90.488 90.482 0 0 0-27.4-11.349 12.5 12.499 0 0 1-9.3875-9.5244l-3.2-14.724a111.88 111.87 0 0 0-15.588 0l-3.2125 14.724a12.5 12.499 0 0 1-9.3875 9.5244 90.5 90.494 0 0 0-27.4 11.349 12.5 12.499 0 0 1-13.375-0.0875l-12.688-8.162a114.8 114.79 0 0 0-11.025 11.024l8.1625 12.687a12.5 12.499 0 0 1 0.0875 13.374 90.512 90.507 0 0 0-11.35 27.398 12.5 12.499 0 0 1-9.525 9.3869l-14.725 3.2123a111.88 111.87 0 0 0 0 15.586l14.725 3.1998a12.5 12.499 0 0 1 9.525 9.3869 90.525 90.519 0 0 0 11.35 27.398 12.5 12.499 0 0 1-0.0875 13.374l-8.1625 12.687a114.62 114.62 0 0 0 11.025 11.024l12.688-8.162a12.5 12.499 0 0 1 13.375-0.0875 90.525 90.519 0 0 0 27.4 11.349 12.5 12.499 0 0 1 9.3875 9.5244l3.2125 14.724a111.88 111.87 0 0 0 15.588 0l3.2-14.724a12.5 12.499 0 0 1 9.3875-9.5244 90.512 90.507 0 0 0 27.4-11.349 12.5 12.499 0 0 1 13.375 0.0875l12.688 8.162a114.8 114.79 0 0 0 11.025-11.024l-8.1625-12.687a12.5 12.499 0 0 1-0.0875-13.374 90.5 90.494 0 0 0 11.35-27.398 12.5 12.499 0 0 1 9.525-9.3869l14.725-3.2123a111.88 111.87 0 0 0 0-15.586l-14.725-3.1998a12.5 12.499 0 0 1-9.525-9.3869zm-87.975 90.982a70.6 70.595 0 1 1 70.6-70.595 70.638 70.633 0 0 1-70.6 70.595z" fill="#fdbf00;"/>
</svg>
